PathFileType	4	(X/Y/Z)	..\data\2014025\dynamic\2014025_C5_02.trc
DataRate	CameraRate	NumFrames	NumMarkers	Units	OrigDataRate	OrigDataStartFrame	OrigNumFrames
100.000000	100.000000	4	52	mm	100.000000	62	125
Frame#	Time	L_IAS			L_IPS			R_IPS			R_IAS			L_FTC			L_FLE			L_FME			L_FAX			L_TTC			L_FAL			L_TAM			L_FCC			L_FM1			L_FM2			L_FM5			R_FTC			R_FLE			R_FME			R_FAX			R_TTC			R_FAL			R_TAM			R_FCC			R_FM1			R_FM2			R_FM5			CV7			TV10			SXS			SJN			L_SIA			L_SRS			L_SAA			L_SAE			L_HLE			L_HME			L_UOA			L_RSP			L_UHE			L_HM2			L_HM5			R_SIA			R_SRS			R_SAA			R_SAE			R_HLE			R_HME			R_UOA			R_RSP			R_UHE			R_HM2			R_HM5			
		X1	Y1	Z1	X2	Y2	Z2	X3	Y3	Z3	X4	Y4	Z4	X5	Y5	Z5	X6	Y6	Z6	X7	Y7	Z7	X8	Y8	Z8	X9	Y9	Z9	X10	Y10	Z10	X11	Y11	Z11	X12	Y12	Z12	X13	Y13	Z13	X14	Y14	Z14	X15	Y15	Z15	X16	Y16	Z16	X17	Y17	Z17	X18	Y18	Z18	X19	Y19	Z19	X20	Y20	Z20	X21	Y21	Z21	X22	Y22	Z22	X23	Y23	Z23	X24	Y24	Z24	X25	Y25	Z25	X26	Y26	Z26	X27	Y27	Z27	X28	Y28	Z28	X29	Y29	Z29	X30	Y30	Z30	X31	Y31	Z31	X32	Y32	Z32	X33	Y33	Z33	X34	Y34	Z34	X35	Y35	Z35	X36	Y36	Z36	X37	Y37	Z37	X38	Y38	Z38	X39	Y39	Z39	X40	Y40	Z40	X41	Y41	Z41	X42	Y42	Z42	X43	Y43	Z43	X44	Y44	Z44	X45	Y45	Z45	X46	Y46	Z46	X47	Y47	Z47	X48	Y48	Z48	X49	Y49	Z49	X50	Y50	Z50	X51	Y51	Z51	X52	Y52	Z52	

63	0.62	891.917175292969	888.1042480468752	-400.7819213867189	673.3864135742189	951.696228027344	-312.1535949707032	682.0743408203126	960.212097167969	-199.7030029296876	914.9187622070315	917.955749511719	-126.3422164916992	786.3586425781252	820.594421386719	-468.7422180175782	887.779724121094	456.707000732422	-435.3654785156251	915.2933349609377	433.7294921875001	-276.4566040039063	848.7930908203127	420.7386779785157	-434.1153259277345	887.5708007812502	357.6452941894532	-387.0564270019532	586.9589233398439	200.6647186279297	-365.3740539550782	616.7373046875001	187.7034912109375	-283.0209045410157	533.7191162109376	191.7281646728516	-306.2896728515626	666.7312622070314	56.1033172607422	-300.9383239746094	665.7678222656251	76.4391326904297	-357.6712036132813	617.2653808593751	89.35222625732423	-390.9869079589845	839.4686279296877	849.4704589843752	-41.82415008544923	859.6586914062502	468.5770874023439	-109.7902984619141	868.5784301757815	468.690399169922	-273.1195983886719	826.9916992187502	399.5992736816407	-111.4060821533203	905.6089477539065	386.3318176269532	-174.4365997314453	789.8691406250002	71.57826232910158	-170.0043487548828	814.934509277344	82.46732330322267	-257.2956542968751	749.8348388671876	22.16066551208496	-233.2012786865235	938.6043090820315	18.65269851684571	-232.2664947509766	935.0525512695315	42.33959960937501	-175.9788360595703	885.6793212890627	21.64724349975586	-130.1674041748047	770.8566894531252	1416.181030273438	-269.1620178222657	689.2625732421876	1192.1044921875	-271.1730041503907	947.8372192382815	1195.160766601563	-266.2233581542969	882.7537231445315	1336.040405273438	-265.1922302246094	685.2258911132814	1238.9677734375	-379.6371765136719	729.8686523437501	1369.886840820313	-359.1127929687501	776.7498779296877	1378.223876953125	-435.0130004882814	830.4053344726565	1381.916748046875	-450.3190917968751	850.8529052734377	1072.6328125	-541.4290771484376	813.534606933594	1046.822631835938	-459.1659545898439	817.7208251953127	1048.432861328125	-507.1788024902345	971.0625000000002	854.6119384765627	-517.2105712890626	910.323913574219	846.3621215820315	-571.4326782226564	1001.521545410156	780.6299438476565	-545.3327026367189	919.4156494140627	791.6401367187502	-596.1934814453126	682.9715576171876	1221.824951171875	-168.3061065673828	726.6119384765626	1356.005004882813	-181.56640625	769.379333496094	1365.89990234375	-114.8800582885742	818.5668945312502	1368.700561523438	-94.88643646240236	777.2139892578127	1060.608154296875	4.875935077667237	776.8506469726565	1034.189697265625	-81.22000122070314	764.0504760742189	1029.019653320313	-28.95895576477051	890.8230590820315	834.7952270507815	43.91734695434571	833.0901489257815	836.8927001953127	78.70016479492189	896.6362915039065	760.1323242187501	77.2742385864258	803.659118652344	791.784851074219	86.84289550781251	
64	0.63	909.9255981445315	892.5650634765627	-400.628387451172	691.7963867187501	955.9097900390627	-309.2943420410157	701.4005126953126	963.6074218750002	-197.0346679687501	932.6303710937502	918.964782714844	-125.6350936889649	805.1740722656252	825.313415527344	-467.698455810547	920.4304809570315	463.0746459960939	-433.8214416503907	947.660827636719	442.1483459472657	-274.9649353027344	882.9992675781252	425.2007141113282	-432.7932128906251	923.889343261719	363.9575805664063	-385.1373291015626	630.9855957031251	191.368148803711	-364.4129028320313	660.9082031250001	180.3982238769532	-281.9244384765626	577.2202758789064	178.7234802246094	-305.5350646972657	721.5729370117189	53.27980804443361	-300.2805175781251	718.9760131835939	74.1700897216797	-356.6146545410157	669.7789916992189	82.97485351562501	-389.9384155273439	855.5723266601565	849.352722167969	-41.27567291259766	863.1135864257815	468.9751586914064	-109.8245468139649	872.702087402344	468.4780578613282	-273.4957275390626	828.8271484375002	400.1642456054689	-111.8222427368164	907.8666992187502	385.8050537109376	-174.070541381836	790.253112792969	71.92370605468751	-170.5489654541016	815.6948242187502	82.83045959472658	-257.6917419433594	750.4101562500001	22.90198707580567	-234.0894012451172	938.8006591796877	18.72724533081055	-232.0086059570313	935.152526855469	42.22529983520509	-175.6993103027344	885.4940185546877	21.55127906799317	-130.3617858886719	789.5238037109377	1418.341796875	-269.8642272949219	707.6895751953126	1194.547485351563	-269.3978576660157	965.9818115234377	1197.80615234375	-267.1947631835938	900.9384765625002	1338.619506835938	-266.6332092285157	702.3870849609376	1240.93212890625	-377.7074584960938	747.6463012695314	1371.664916992188	-358.8626098632813	793.663024902344	1380.10693359375	-435.0372619628907	847.094665527344	1383.527709960938	-451.2566223144532	856.6468505859377	1072.77099609375	-541.2500610351564	820.2595825195315	1049.366821289063	-458.0749511718751	823.9353027343752	1049.834716796875	-506.0010070800782	971.2556152343752	851.9097290039065	-517.3799438476564	909.4879150390627	844.8770141601565	-570.5811767578126	998.9132080078127	776.4470825195315	-544.6691284179689	916.5383911132815	789.1678466796877	-594.6906738281251	702.0407714843751	1225.280517578125	-166.5775756835938	745.5270385742189	1359.134521484375	-181.6119232177735	788.725524902344	1369.587280273438	-115.5257034301758	838.3354492187502	1372.306762695313	-95.91751098632814	803.2309570312502	1063.857666015625	5.6629376411438	799.8496704101565	1037.851806640625	-80.40008544921876	789.565368652344	1031.175537109375	-27.6819133758545	926.2503662109377	841.2232666015627	40.44994735717774	869.5816040039065	841.5039062500002	77.29369354248048	936.076110839844	767.1763305664064	73.63064575195314	842.1416625976565	795.070495605469	86.32775115966798	
65	0.64	928.2111816406252	896.6863403320315	-400.1905517578126	710.3421630859376	959.5508422851565	-306.4709167480469	720.9090576171876	966.562194824219	-194.2106018066407	950.5646972656252	919.4883422851565	-125.4260635375977	824.045349121094	829.6707763671877	-466.780975341797	952.2832641601565	469.2917785644532	-432.2123107910157	979.1804809570315	450.4229736328126	-273.6233215332032	916.5306396484377	429.2560424804689	-431.5119018554689	959.5919189453127	370.2133789062501	-383.2923278808594	676.3732299804689	180.7205963134766	-363.7755432128907	706.3267211914064	171.9387969970703	-281.1830139160157	622.4971923828126	164.420883178711	-305.1667175292969	777.3931884765627	50.18442535400392	-299.5094604492188	773.099304199219	71.2698440551758	-355.4887084960938	723.5213623046876	75.74314117431642	-388.9533081054689	871.8450317382815	848.7596435546877	-40.83701324462891	866.715515136719	469.4540405273439	-110.0991363525391	876.7803955078127	468.4024963378907	-274.1967163085938	830.7817382812502	400.8635559082032	-112.4886932373047	910.2517700195315	385.4165954589845	-174.0120239257813	790.7606201171877	72.44369506835939	-171.4817810058594	816.7398071289065	83.25828552246095	-258.4015808105469	751.1779785156251	23.8413314819336	-235.3660583496094	939.102478027344	18.60253334045411	-231.7735748291016	935.3110351562502	41.97704696655274	-175.4967193603516	885.2305908203127	21.55143928527832	-130.7763214111328	808.0961914062502	1419.960205078125	-270.5033874511719	726.0999145507814	1196.4453125	-267.5317382812501	984.1624145507815	1200.12451171875	-268.1906433105469	919.0889892578127	1340.76708984375	-268.0711059570313	719.6055908203126	1242.317993164063	-375.5307922363282	765.2756347656251	1372.8779296875	-358.4256896972657	810.363708496094	1381.4404296875	-434.8942260742189	863.477478027344	1384.685302734375	-452.078338623047	862.4106445312502	1072.989379882813	-540.9204101562501	827.1622314453127	1051.769165039063	-456.8964233398439	830.2098388671877	1051.206176757813	-504.7180786132814	971.440368652344	849.4538574218752	-517.7036743164064	908.630310058594	843.6740722656252	-569.7378540039064	996.3057250976565	772.7339477539065	-544.2639160156251	913.6639404296877	787.0916748046877	-593.2394409179689	721.2092895507814	1228.169555664063	-164.7571868896485	764.3864746093751	1361.700805664063	-181.6171569824219	808.0459594726565	1372.755859375	-116.124137878418	857.999938964844	1375.496948242188	-96.94246673583987	829.1250000000002	1066.871704101563	6.439713001251222	822.7852783203127	1041.150024414063	-79.44790649414064	815.0480957031252	1033.016845703125	-26.35883522033692	961.503845214844	847.8885498046877	36.71357727050782	906.1019287109377	846.3408203125002	75.59661865234376	975.3939208984377	774.5938720703127	69.54210662841798	880.7634887695315	798.6391601562502	85.44458007812501	
66	0.65	946.7961425781252	900.2923583984377	-399.4581909179689	728.9949951171876	962.4984130859377	-303.8043212890626	740.5029296875001	968.9959106445315	-191.3473052978516	968.6900634765627	919.4674072265627	-125.6748504638672	843.056579589844	833.4831542968752	-466.0161132812501	983.1773071289065	475.131072998047	-430.5792236328126	1009.669311523438	458.2562866210939	-272.4518432617188	949.2109985351565	432.7385559082032	-430.3027954101564	994.4846801757815	376.2485046386719	-381.5704650878907	723.1695556640626	169.0797576904297	-363.5270690917969	753.0461425781251	162.5994720458985	-280.8576965332032	669.6712646484376	149.1754760742188	-305.2280578613282	834.0172119140627	47.10993194580079	-298.8571777343751	827.9801025390627	68.06158447265626	-354.5295410156251	778.3799438476565	68.12414550781251	-388.2333984375001	888.3084716796877	847.7099609375002	-40.47765350341798	870.5776977539065	469.9814758300782	-110.6023788452149	880.933532714844	468.4690551757814	-275.1819152832032	832.9589843750002	401.6868591308595	-113.3926773071289	912.876892089844	385.1421508789064	-174.2502593994141	791.399597167969	73.17060852050783	-172.8109741210938	818.0913696289065	83.77928161621095	-259.4316101074219	752.1537475585939	24.99130821228028	-237.0471801757813	939.5234375000002	18.33711051940918	-231.5667266845704	935.5333251953127	41.65142059326173	-175.3729705810547	884.9045410156252	21.69603919982911	-131.4078826904297	826.5596313476565	1421.007080078125	-271.0574645996094	744.4774780273439	1197.755615234375	-265.5884094238282	1002.395324707031	1202.045288085938	-269.2080383300782	937.2192382812502	1342.421508789063	-269.4644470214844	736.8871459960939	1243.0849609375	-373.1161499023438	782.7789306640627	1373.488159179688	-357.7911682128907	826.8770141601565	1382.165771484375	-434.5813293457032	879.5925903320315	1385.321899414063	-452.7667541503907	868.2639770507815	1073.202026367188	-540.4190063476564	834.4031372070315	1053.892700195313	-455.5880432128907	836.6672973632815	1052.460083007813	-503.292205810547	971.6970214843752	847.1137695312502	-518.2474975585939	907.814880371094	842.667663574219	-568.9443359375001	993.7471313476565	769.3405761718752	-544.2487792968751	910.8179321289065	785.3525390625002	-591.9096679687501	740.4906616210939	1230.419555664063	-162.8440856933594	783.1868896484377	1363.64892578125	-181.5423431396485	827.360778808594	1375.321533203125	-116.6239929199219	877.5714111328127	1378.197998046875	-97.92363739013675	854.8790283203127	1069.541381835938	7.220970153808596	845.710144042969	1043.961059570313	-78.34185028076173	840.510681152344	1034.47119140625	-24.98494148254395	996.4949340820315	854.7445068359377	32.74847412109376	942.5625610351565	851.3403930664065	73.61154937744142	1014.475402832031	782.3315429687502	65.0435256958008	919.423522949219	802.457946777344	84.18296813964845	
